<?xml version="1.0" encoding="UTF-8"?> <svg xmlns="http://www.w3.org/2000/svg" viewBox="0 0 100 100" fill-rule="evenodd"><g style="transform-origin: center center; transform: scale(0.9);"><path d="M63.5 44.5V26.58a3 3 0 1 0-3 0V46a1.5 1.5 0 0 0 1.5 1.5h3.5v15H61a1.5 1.5 0 0 0-1.5 1.5v16.42a3 3 0 1 0 3 0V65.5h10.92a3 3 0 1 0 0-3H68.5v-15h11.92a3 3 0 1 0 0-3Z" fill="#ffffff"></path><path d="M95 31.2H79.21V11a1.5 1.5 0 0 0-1.5-1.5H22.29a1.5 1.5 0 0 0-1.5 1.5v20.2H5a1.5 1.5 0 0 0-1.5 1.5v21.75a1.5 1.5 0 0 0 1.5 1.5h6.23v21.23a1.5 1.5 0 0 0 1.5 1.5H27V92a1.5 1.5 0 0 0 1.5 1.5h43A1.5 1.5 0 0 0 73 92V78.68h14.27a1.5 1.5 0 0 0 1.5-1.5V55.95H95a1.5 1.5 0 0 0 1.5-1.5V32.7a1.5 1.5 0 0 0-1.5-1.5ZM28.5 75.68H14.23V54.45a1.5 1.5 0 0 0-1.5-1.5H6.5V34.2h15.79a1.5 1.5 0 0 0 1.5-1.5V12.5H48.5v78H30V77.18a1.5 1.5 0 0 0-1.5-1.5Zm65-22.73h-6.23a1.5 1.5 0 0 0-1.5 1.5v21.23H71.5a1.5 1.5 0 0 0-1.5 1.5V90.5H51.5v-78h24.71v20.2a1.5 1.5 0 0 0 1.5 1.5H93.5Z" fill="#ffffff"></path><path d="M37.5 80.42a3 3 0 1 0 3 0V64a1.5 1.5 0 0 0-1.5-1.5h-4.5v-15H38a1.5 1.5 0 0 0 1.5-1.5V26.58a3 3 0 1 0-3 0V44.5H19.58a3 3 0 1 0 0 3H31.5v15h-4.92a3 3 0 1 0 0 3H37.5Z" fill="#ffffff"></path></g></svg> 