<?xml version="1.0" encoding="UTF-8"?> <svg xmlns="http://www.w3.org/2000/svg" viewBox="0 0 100 100" fill-rule="evenodd"><path d="m79.54 15-.18-.18a1.49 1.49 0 0 0-.77-.74C64.91 1 44.92-1.22 27.28 8.42a1.5 1.5 0 0 0-.35 2.37L55.86 40l-33.7 33.67a6.26 6.26 0 0 1-8.83 0 6.23 6.23 0 0 1 0-8.82 1.5 1.5 0 1 0-2.12-2.12 9.24 9.24 0 0 0 13.07 13.06L58 42.15l26.6 26.91a1.5 1.5 0 0 0 1.07.44h.22a1.5 1.5 0 0 0 1.11-.79C96.45 51 93.38 28.94 79.54 15Zm-31 13.43a1.49 1.49 0 0 0 .44-.27c14.28-12.91 25.6-11.85 28.09-11.42l.29.28c.31 1.16 3.74 15.25-9.48 30.88ZM73.36 13.5c-5.53.15-15.12 2.23-26.37 12.39a1.47 1.47 0 0 0-.37.54L30.5 10.13c14.68-7.25 30.83-5.9 42.86 3.37Zm11.9 52L70 50c10-11.7 11.3-22.63 11-28.79a43.21 43.21 0 0 1 4.27 44.25Z" fill="#ffffff"></path><path d="M63.5 72.08a1.5 1.5 0 0 0 3 0c0-4.22-3.7-7.71-8.5-8.32V61a1.5 1.5 0 0 0-3 0v2.76c-4.8.61-8.5 4.11-8.5 8.32s3.7 7.7 8.5 8.31v10.83c-3.14-.53-5.5-2.71-5.5-5.3a1.5 1.5 0 0 0-3 0c0 4.22 3.7 7.71 8.5 8.32V97a1.5 1.5 0 0 0 3 0v-2.76c4.8-.61 8.5-4.11 8.5-8.32s-3.7-7.7-8.5-8.31V66.78c3.14.54 5.5 2.71 5.5 5.3Zm-14 0c0-2.59 2.36-4.76 5.5-5.3v10.59c-3.14-.53-5.5-2.7-5.5-5.29Zm14 13.84c0 2.59-2.36 4.76-5.5 5.3V80.63c3.14.53 5.5 2.7 5.5 5.29Z" fill="#ffffff"></path></svg> 